<svg width="26" height="28" viewBox="0 0 26 28" fill="none" xmlns="http://www.w3.org/2000/svg">
<mask id="mask0_155_18" style="mask-type:alpha" maskUnits="userSpaceOnUse" x="-7" y="-8" width="40" height="46">
<rect x="-6.44846" y="-7.46668" width="38.6909" height="44.8" fill="#D9D9D9"/>
</mask>
<g mask="url(#mask0_155_18)">
<path d="M4.83636 28V24.2667H16.2824C17.9752 24.2667 19.4462 23.6444 20.6956 22.4C21.945 21.1556 22.5697 19.6 22.5697 17.7333C22.5697 15.8667 21.945 14.3111 20.6956 13.0667C19.4462 11.8222 17.9752 11.2 16.2824 11.2H6.12606L10.3176 16.0533L8.06061 18.6667L0 9.33333L8.06061 0L10.3176 2.61333L6.12606 7.46667H16.2824C18.8887 7.46667 21.1255 8.44667 22.9929 10.4067C24.8603 12.3667 25.7939 14.8089 25.7939 17.7333C25.7939 20.6578 24.8603 23.1 22.9929 25.06C21.1255 27.02 18.8887 28 16.2824 28H4.83636Z" fill="white"/>
</g>
</svg>
