<svg width="64" height="66" viewBox="0 0 64 66" fill="none" xmlns="http://www.w3.org/2000/svg">
<path d="M32 33C27.6 33 23.8333 31.3844 20.7 28.1531C17.5667 24.9219 16 21.0375 16 16.5C16 11.9625 17.5667 8.07812 20.7 4.84688C23.8333 1.61563 27.6 0 32 0C36.4 0 40.1667 1.61563 43.3 4.84688C46.4333 8.07812 48 11.9625 48 16.5C48 21.0375 46.4333 24.9219 43.3 28.1531C40.1667 31.3844 36.4 33 32 33ZM0 66V54.45C0 52.1125 0.583333 49.9641 1.75 48.0047C2.91667 46.0453 4.46667 44.55 6.4 43.5187C10.5333 41.3875 14.7333 39.7891 19 38.7234C23.2667 37.6578 27.6 37.125 32 37.125C36.4 37.125 40.7333 37.6578 45 38.7234C49.2667 39.7891 53.4667 41.3875 57.6 43.5187C59.5333 44.55 61.0833 46.0453 62.25 48.0047C63.4167 49.9641 64 52.1125 64 54.45V66H0ZM8 57.75H56V54.45C56 53.6937 55.8167 53.0062 55.45 52.3875C55.0833 51.7687 54.6 51.2875 54 50.9437C50.4 49.0875 46.7667 47.6953 43.1 46.7672C39.4333 45.8391 35.7333 45.375 32 45.375C28.2667 45.375 24.5667 45.8391 20.9 46.7672C17.2333 47.6953 13.6 49.0875 10 50.9437C9.4 51.2875 8.91667 51.7687 8.55 52.3875C8.18333 53.0062 8 53.6937 8 54.45V57.75ZM32 24.75C34.2 24.75 36.0833 23.9422 37.65 22.3266C39.2167 20.7109 40 18.7687 40 16.5C40 14.2312 39.2167 12.2891 37.65 10.6734C36.0833 9.05781 34.2 8.25 32 8.25C29.8 8.25 27.9167 9.05781 26.35 10.6734C24.7833 12.2891 24 14.2312 24 16.5C24 18.7687 24.7833 20.7109 26.35 22.3266C27.9167 23.9422 29.8 24.75 32 24.75Z" fill="#37174A"/>
</svg>
